<svg id="visual" viewBox="0 0 900 600" width="900" height="600" xmlns="http://www.w3.org/2000/svg" xmlns:xlink="http://www.w3.org/1999/xlink" version="1.1"><rect x="0" y="0" width="900" height="600" fill="#001122"></rect><g transform="translate(929.356692712136 18.491932684453786)"><path d="M153.8 -220.9C192 -183.9 210.6 -129.2 298.7 -51.4C386.8 26.4 544.3 127.2 584.5 247.5C624.7 367.8 547.4 507.5 430.5 486.7C313.5 465.9 156.7 284.5 10.9 269.5C-135 254.6 -270 406 -392.8 428.7C-515.7 451.4 -626.4 345.5 -649.2 223.2C-672.1 100.9 -607.1 -37.6 -565.1 -188.8C-523 -339.9 -504 -503.7 -413.6 -523.6C-323.3 -543.6 -161.6 -419.8 -51.9 -348.3C57.8 -276.9 115.6 -257.8 153.8 -220.9" fill="none" stroke="#BB004B" stroke-width="6"></path></g></svg>