<svg id="visual" viewBox="0 0 900 600" width="900" height="600" xmlns="http://www.w3.org/2000/svg" xmlns:xlink="http://www.w3.org/1999/xlink" version="1.1"><rect x="0" y="0" width="900" height="600" fill="#001220"></rect><defs><linearGradient id="grad1_0" x1="33.3%" y1="0%" x2="100%" y2="100%"><stop offset="20%" stop-color="#001220" stop-opacity="1"></stop><stop offset="80%" stop-color="#001220" stop-opacity="1"></stop></linearGradient></defs><defs><linearGradient id="grad2_0" x1="0%" y1="0%" x2="66.7%" y2="100%"><stop offset="20%" stop-color="#001220" stop-opacity="1"></stop><stop offset="80%" stop-color="#001220" stop-opacity="1"></stop></linearGradient></defs><g transform="translate(900, 0)"><path d="M0 297.5C-41 296.4 -82 295.3 -113.8 274.8C-145.6 254.3 -168.3 214.3 -179.6 179.6C-191 144.9 -191 115.5 -208.8 86.5C-226.6 57.4 -262 28.7 -297.5 0L0 0Z" fill="#FF0066"></path></g><g transform="translate(0, 600)"><path d="M0 -297.5C20.7 -243.3 41.5 -189.1 72.3 -174.6C103.2 -160.1 144.2 -185.2 182.4 -182.4C220.7 -179.6 256.1 -148.9 274.8 -113.8C293.5 -78.8 295.5 -39.4 297.5 0L0 0Z" fill="#FF0066"></path></g></svg>