<svg id="visual" viewBox="0 0 900 600" width="900" height="600" xmlns="http://www.w3.org/2000/svg" xmlns:xlink="http://www.w3.org/1999/xlink" version="1.1"><path d="M647 600L666.5 590.8C686 581.7 725 563.3 737 545.2C749 527 734 509 707 490.8C680 472.7 641 454.3 630.5 436.2C620 418 638 400 651.5 381.8C665 363.7 674 345.3 665 327.2C656 309 629 291 645.5 272.8C662 254.7 722 236.3 728 218.2C734 200 686 182 669.5 163.8C653 145.7 668 127.3 686 109.2C704 91 725 73 714.5 54.8C704 36.7 662 18.3 641 9.2L620 0L900 0L900 9.2C900 18.3 900 36.7 900 54.8C900 73 900 91 900 109.2C900 127.3 900 145.7 900 163.8C900 182 900 200 900 218.2C900 236.3 900 254.7 900 272.8C900 291 900 309 900 327.2C900 345.3 900 363.7 900 381.8C900 400 900 418 900 436.2C900 454.3 900 472.7 900 490.8C900 509 900 527 900 545.2C900 563.3 900 581.7 900 590.8L900 600Z" fill="#003a62"></path><path d="M575 600L596 590.8C617 581.7 659 563.3 672.5 545.2C686 527 671 509 630.5 490.8C590 472.7 524 454.3 503 436.2C482 418 506 400 533 381.8C560 363.7 590 345.3 590 327.2C590 309 560 291 569 272.8C578 254.7 626 236.3 624.5 218.2C623 200 572 182 551 163.8C530 145.7 539 127.3 557 109.2C575 91 602 73 602 54.8C602 36.7 575 18.3 561.5 9.2L548 0L621 0L642 9.2C663 18.3 705 36.7 715.5 54.8C726 73 705 91 687 109.2C669 127.3 654 145.7 670.5 163.8C687 182 735 200 729 218.2C723 236.3 663 254.7 646.5 272.8C630 291 657 309 666 327.2C675 345.3 666 363.7 652.5 381.8C639 400 621 418 631.5 436.2C642 454.3 681 472.7 708 490.8C735 509 750 527 738 545.2C726 563.3 687 581.7 667.5 590.8L648 600Z" fill="#012c4b"></path><path d="M494 600L516.5 590.8C539 581.7 584 563.3 602 545.2C620 527 611 509 572 490.8C533 472.7 464 454.3 441.5 436.2C419 418 443 400 471.5 381.8C500 363.7 533 345.3 536 327.2C539 309 512 291 518 272.8C524 254.7 563 236.3 554 218.2C545 200 488 182 470 163.8C452 145.7 473 127.3 492.5 109.2C512 91 530 73 530 54.8C530 36.7 512 18.3 503 9.2L494 0L549 0L562.5 9.2C576 18.3 603 36.7 603 54.8C603 73 576 91 558 109.2C540 127.3 531 145.7 552 163.8C573 182 624 200 625.5 218.2C627 236.3 579 254.7 570 272.8C561 291 591 309 591 327.2C591 345.3 561 363.7 534 381.8C507 400 483 418 504 436.2C525 454.3 591 472.7 631.5 490.8C672 509 687 527 673.5 545.2C660 563.3 618 581.7 597 590.8L576 600Z" fill="#021f35"></path><path d="M341 600L363.5 590.8C386 581.7 431 563.3 446 545.2C461 527 446 509 413 490.8C380 472.7 329 454.3 317 436.2C305 418 332 400 350 381.8C368 363.7 377 345.3 383 327.2C389 309 392 291 398 272.8C404 254.7 413 236.3 402.5 218.2C392 200 362 182 356 163.8C350 145.7 368 127.3 377 109.2C386 91 386 73 374 54.8C362 36.7 338 18.3 326 9.2L314 0L495 0L504 9.2C513 18.3 531 36.7 531 54.8C531 73 513 91 493.5 109.2C474 127.3 453 145.7 471 163.8C489 182 546 200 555 218.2C564 236.3 525 254.7 519 272.8C513 291 540 309 537 327.2C534 345.3 501 363.7 472.5 381.8C444 400 420 418 442.5 436.2C465 454.3 534 472.7 573 490.8C612 509 621 527 603 545.2C585 563.3 540 581.7 517.5 590.8L495 600Z" fill="#001220"></path><path d="M170 600L173 590.8C176 581.7 182 563.3 183.5 545.2C185 527 182 509 171.5 490.8C161 472.7 143 454.3 134 436.2C125 418 125 400 131 381.8C137 363.7 149 345.3 149 327.2C149 309 137 291 140 272.8C143 254.7 161 236.3 170 218.2C179 200 179 182 180.5 163.8C182 145.7 185 127.3 185 109.2C185 91 182 73 177.5 54.8C173 36.7 167 18.3 164 9.2L161 0L315 0L327 9.2C339 18.3 363 36.7 375 54.8C387 73 387 91 378 109.2C369 127.3 351 145.7 357 163.8C363 182 393 200 403.5 218.2C414 236.3 405 254.7 399 272.8C393 291 390 309 384 327.2C378 345.3 369 363.7 351 381.8C333 400 306 418 318 436.2C330 454.3 381 472.7 414 490.8C447 509 462 527 447 545.2C432 563.3 387 581.7 364.5 590.8L342 600Z" fill="#00111e"></path><path d="M53 600L60.5 590.8C68 581.7 83 563.3 92 545.2C101 527 104 509 95 490.8C86 472.7 65 454.3 54.5 436.2C44 418 44 400 54.5 381.8C65 363.7 86 345.3 86 327.2C86 309 65 291 63.5 272.8C62 254.7 80 236.3 87.5 218.2C95 200 92 182 90.5 163.8C89 145.7 89 127.3 86 109.2C83 91 77 73 69.5 54.8C62 36.7 53 18.3 48.5 9.2L44 0L162 0L165 9.2C168 18.3 174 36.7 178.5 54.8C183 73 186 91 186 109.2C186 127.3 183 145.7 181.5 163.8C180 182 180 200 171 218.2C162 236.3 144 254.7 141 272.8C138 291 150 309 150 327.2C150 345.3 138 363.7 132 381.8C126 400 126 418 135 436.2C144 454.3 162 472.7 172.5 490.8C183 509 186 527 184.5 545.2C183 563.3 177 581.7 174 590.8L171 600Z" fill="#00101b"></path><path d="M0 600L0 590.8C0 581.7 0 563.3 0 545.2C0 527 0 509 0 490.8C0 472.7 0 454.3 0 436.2C0 418 0 400 0 381.8C0 363.7 0 345.3 0 327.2C0 309 0 291 0 272.8C0 254.7 0 236.3 0 218.2C0 200 0 182 0 163.8C0 145.7 0 127.3 0 109.2C0 91 0 73 0 54.8C0 36.7 0 18.3 0 9.2L0 0L45 0L49.5 9.2C54 18.3 63 36.7 70.5 54.8C78 73 84 91 87 109.2C90 127.3 90 145.7 91.5 163.8C93 182 96 200 88.5 218.2C81 236.3 63 254.7 64.5 272.8C66 291 87 309 87 327.2C87 345.3 66 363.7 55.5 381.8C45 400 45 418 55.5 436.2C66 454.3 87 472.7 96 490.8C105 509 102 527 93 545.2C84 563.3 69 581.7 61.5 590.8L54 600Z" fill="#000f19"></path></svg>