<svg id="visual" viewBox="0 0 900 600" width="900" height="600" xmlns="http://www.w3.org/2000/svg" xmlns:xlink="http://www.w3.org/1999/xlink" version="1.1"><path d="M0 385L25 386.2C50 387.3 100 389.7 150 401.3C200 413 250 434 300 448.3C350 462.7 400 470.3 450 474.5C500 478.7 550 479.3 600 471.5C650 463.7 700 447.3 750 429.8C800 412.3 850 393.7 875 384.3L900 375L900 601L875 601C850 601 800 601 750 601C700 601 650 601 600 601C550 601 500 601 450 601C400 601 350 601 300 601C250 601 200 601 150 601C100 601 50 601 25 601L0 601Z" fill="#22303b" stroke-linecap="round" stroke-linejoin="miter"></path></svg>