<svg id="visual" viewBox="0 0 900 600" width="900" height="600" xmlns="http://www.w3.org/2000/svg" xmlns:xlink="http://www.w3.org/1999/xlink" version="1.1"><rect x="0" y="0" width="900" height="600" fill="#001220"></rect><path d="M0 412L21.5 416.5C43 421 86 430 128.8 428.7C171.7 427.3 214.3 415.7 257.2 414.2C300 412.7 343 421.3 385.8 418.5C428.7 415.7 471.3 401.3 514.2 401.2C557 401 600 415 642.8 421.3C685.7 427.7 728.3 426.3 771.2 419.3C814 412.3 857 399.7 878.5 393.3L900 387L900 601L878.5 601C857 601 814 601 771.2 601C728.3 601 685.7 601 642.8 601C600 601 557 601 514.2 601C471.3 601 428.7 601 385.8 601C343 601 300 601 257.2 601C214.3 601 171.7 601 128.8 601C86 601 43 601 21.5 601L0 601Z" fill="#f7caca"></path><path d="M0 445L21.5 446.3C43 447.7 86 450.3 128.8 450.8C171.7 451.3 214.3 449.7 257.2 451.5C300 453.3 343 458.7 385.8 456C428.7 453.3 471.3 442.7 514.2 431C557 419.3 600 406.7 642.8 405.8C685.7 405 728.3 416 771.2 416.7C814 417.3 857 407.7 878.5 402.8L900 398L900 601L878.5 601C857 601 814 601 771.2 601C728.3 601 685.7 601 642.8 601C600 601 557 601 514.2 601C471.3 601 428.7 601 385.8 601C343 601 300 601 257.2 601C214.3 601 171.7 601 128.8 601C86 601 43 601 21.5 601L0 601Z" fill="#efa5ab"></path><path d="M0 505L21.5 501.3C43 497.7 86 490.3 128.8 484.7C171.7 479 214.3 475 257.2 475.3C300 475.7 343 480.3 385.8 480.8C428.7 481.3 471.3 477.7 514.2 474.8C557 472 600 470 642.8 470.2C685.7 470.3 728.3 472.7 771.2 474.7C814 476.7 857 478.3 878.5 479.2L900 480L900 601L878.5 601C857 601 814 601 771.2 601C728.3 601 685.7 601 642.8 601C600 601 557 601 514.2 601C471.3 601 428.7 601 385.8 601C343 601 300 601 257.2 601C214.3 601 171.7 601 128.8 601C86 601 43 601 21.5 601L0 601Z" fill="#e48091"></path><path d="M0 539L21.5 531.2C43 523.3 86 507.7 128.8 507.7C171.7 507.7 214.3 523.3 257.2 530.2C300 537 343 535 385.8 528.3C428.7 521.7 471.3 510.3 514.2 509.8C557 509.3 600 519.7 642.8 525.7C685.7 531.7 728.3 533.3 771.2 535C814 536.7 857 538.3 878.5 539.2L900 540L900 601L878.5 601C857 601 814 601 771.2 601C728.3 601 685.7 601 642.8 601C600 601 557 601 514.2 601C471.3 601 428.7 601 385.8 601C343 601 300 601 257.2 601C214.3 601 171.7 601 128.8 601C86 601 43 601 21.5 601L0 601Z" fill="#d6587b"></path><path d="M0 544L21.5 548.2C43 552.3 86 560.7 128.8 561.3C171.7 562 214.3 555 257.2 547.7C300 540.3 343 532.7 385.8 535.7C428.7 538.7 471.3 552.3 514.2 557.5C557 562.7 600 559.3 642.8 560.3C685.7 561.3 728.3 566.7 771.2 566.3C814 566 857 560 878.5 557L900 554L900 601L878.5 601C857 601 814 601 771.2 601C728.3 601 685.7 601 642.8 601C600 601 557 601 514.2 601C471.3 601 428.7 601 385.8 601C343 601 300 601 257.2 601C214.3 601 171.7 601 128.8 601C86 601 43 601 21.5 601L0 601Z" fill="#c62368"></path></svg>