<svg id="visual" viewBox="0 0 900 600" width="900" height="600" xmlns="http://www.w3.org/2000/svg" xmlns:xlink="http://www.w3.org/1999/xlink" version="1.1"><path d="M0 165L18.8 218.5C37.7 272 75.3 379 112.8 382.2C150.3 385.3 187.7 284.7 225.2 270.7C262.7 256.7 300.3 329.3 337.8 382.5C375.3 435.7 412.7 469.3 450.2 481.8C487.7 494.3 525.3 485.7 562.8 412.8C600.3 340 637.7 203 675.2 198.8C712.7 194.7 750.3 323.3 787.8 356.5C825.3 389.7 862.7 327.3 881.3 296.2L900 265L900 601L881.3 601C862.7 601 825.3 601 787.8 601C750.3 601 712.7 601 675.2 601C637.7 601 600.3 601 562.8 601C525.3 601 487.7 601 450.2 601C412.7 601 375.3 601 337.8 601C300.3 601 262.7 601 225.2 601C187.7 601 150.3 601 112.8 601C75.3 601 37.7 601 18.8 601L0 601Z" fill="#000509" stroke-linecap="round" stroke-linejoin="miter"></path></svg>